<?xml version="1.0" encoding="utf-8"?>
<svg xmlns="http://www.w3.org/2000/svg" style="margin: auto; background: rgb(11, 34, 57); display: block; shape-rendering: auto;" width="1920" height="1280" preserveAspectRatio="xMidYMid">
<style type="text/css">
  text {
    text-anchor: middle; font-size: 200px; opacity: 0;
  }
</style>
<g style="transform-origin: 960px 640px; transform: scale(2.5);">
<g transform="translate(960,640)">
  <g transform="translate(0,0)"><g class="path" style="opacity: 1; transform-origin: -212.16px -8.39841px; animation: 2.5s linear -1.52308s infinite normal forwards running fade-4bda3cda-6e83-47f8-b0c9-393ce65727ea;"><path d="M47.56-11.84L47.56-11.84L47.56-11.84Q48.20-11.84 48.68-11.32L48.68-11.32L51.76-8L51.76-8Q48.24-3.92 43.22-1.64L43.22-1.64L43.22-1.64Q38.20 0.64 31.08 0.64L31.08 0.64L31.08 0.64Q24.92 0.64 19.88-1.50L19.88-1.50L19.88-1.50Q14.84-3.64 11.28-7.50L11.28-7.50L11.28-7.50Q7.72-11.36 5.76-16.76L5.76-16.76L5.76-16.76Q3.80-22.16 3.80-28.64L3.80-28.64L3.80-28.64Q3.80-35.12 5.84-40.52L5.84-40.52L5.84-40.52Q7.88-45.92 11.58-49.80L11.58-49.80L11.58-49.80Q15.28-53.68 20.44-55.82L20.44-55.82L20.44-55.82Q25.60-57.96 31.84-57.96L31.84-57.96L31.84-57.96Q37.96-57.96 42.64-56L42.64-56L42.64-56Q47.32-54.04 50.88-50.68L50.88-50.68L48.32-47.12L48.32-47.12Q48.08-46.72 47.70-46.46L47.70-46.46L47.70-46.46Q47.32-46.20 46.68-46.20L46.68-46.20L46.68-46.20Q45.96-46.20 44.92-46.98L44.92-46.98L44.92-46.98Q43.88-47.76 42.20-48.72L42.20-48.72L42.20-48.72Q40.52-49.68 38-50.46L38-50.46L38-50.46Q35.48-51.24 31.80-51.24L31.80-51.24L31.80-51.24Q27.36-51.24 23.68-49.70L23.68-49.70L23.68-49.70Q20-48.16 17.34-45.24L17.34-45.24L17.34-45.24Q14.68-42.32 13.20-38.12L13.20-38.12L13.20-38.12Q11.72-33.92 11.72-28.64L11.72-28.64L11.72-28.64Q11.72-23.28 13.26-19.08L13.26-19.08L13.26-19.08Q14.80-14.88 17.46-11.98L17.46-11.98L17.46-11.98Q20.12-9.08 23.74-7.56L23.74-7.56L23.74-7.56Q27.36-6.04 31.56-6.04L31.56-6.04L31.56-6.04Q34.12-6.04 36.18-6.34L36.18-6.34L36.18-6.34Q38.24-6.64 39.98-7.28L39.98-7.28L39.98-7.28Q41.72-7.92 43.22-8.90L43.22-8.90L43.22-8.90Q44.72-9.88 46.20-11.24L46.20-11.24L46.20-11.24Q46.88-11.84 47.56-11.84" fill="#ec3e0e" stroke="none" stroke-width="none" transform="translate(-239.9399299621582,20.261587283794693)" style="fill: rgb(236, 62, 14);"></path></g><g class="path" style="opacity: 1; transform-origin: -163.82px -0.0384121px; animation: 2.5s linear -1.39615s infinite normal forwards running fade-4bda3cda-6e83-47f8-b0c9-393ce65727ea;"><path d="M76.16-41.16L76.16-41.16L76.16-41.16Q80.60-41.16 84.16-39.68L84.16-39.68L84.16-39.68Q87.72-38.20 90.24-35.48L90.24-35.48L90.24-35.48Q92.76-32.76 94.10-28.90L94.10-28.90L94.10-28.90Q95.44-25.04 95.44-20.28L95.44-20.28L95.44-20.28Q95.44-15.48 94.10-11.64L94.10-11.64L94.10-11.64Q92.76-7.80 90.24-5.08L90.24-5.08L90.24-5.08Q87.72-2.36 84.16-0.90L84.16-0.90L84.16-0.90Q80.60 0.56 76.16 0.56L76.16 0.56L76.16 0.56Q71.68 0.56 68.10-0.90L68.10-0.90L68.10-0.90Q64.52-2.36 62-5.08L62-5.08L62-5.08Q59.48-7.80 58.14-11.64L58.14-11.64L58.14-11.64Q56.80-15.48 56.80-20.28L56.80-20.28L56.80-20.28Q56.80-25.04 58.14-28.90L58.14-28.90L58.14-28.90Q59.48-32.76 62-35.48L62-35.48L62-35.48Q64.52-38.20 68.10-39.68L68.10-39.68L68.10-39.68Q71.68-41.16 76.16-41.16zM76.16-5L76.16-5L76.16-5Q82.16-5 85.12-9.02L85.12-9.02L85.12-9.02Q88.08-13.04 88.08-20.24L88.08-20.24L88.08-20.24Q88.08-27.48 85.12-31.52L85.12-31.52L85.12-31.52Q82.16-35.56 76.16-35.56L76.16-35.56L76.16-35.56Q73.12-35.56 70.86-34.52L70.86-34.52L70.86-34.52Q68.60-33.48 67.10-31.52L67.10-31.52L67.10-31.52Q65.60-29.56 64.86-26.70L64.86-26.70L64.86-26.70Q64.12-23.84 64.12-20.24L64.12-20.24L64.12-20.24Q64.12-13.04 67.10-9.02L67.10-9.02L67.10-9.02Q70.08-5 76.16-5" fill="#ec3e0e" stroke="none" stroke-width="none" transform="translate(-239.9399299621582,20.261587283794693)" style="fill: rgb(236, 62, 14);"></path></g><g class="path" style="opacity: 1; transform-origin: -119.04px 0.321587px; animation: 2.5s linear -1.26923s infinite normal forwards running fade-4bda3cda-6e83-47f8-b0c9-393ce65727ea;"><path d="M130.64-40.52L137.76-40.52L137.76 0L133.52 0L133.52 0Q132 0 131.60-1.48L131.60-1.48L131.04-5.84L131.04-5.84Q128.40-2.92 125.12-1.14L125.12-1.14L125.12-1.14Q121.84 0.64 117.60 0.64L117.60 0.64L117.60 0.64Q114.28 0.64 111.74-0.46L111.74-0.46L111.74-0.46Q109.20-1.56 107.48-3.56L107.48-3.56L107.48-3.56Q105.76-5.56 104.90-8.40L104.90-8.40L104.90-8.40Q104.04-11.24 104.04-14.68L104.04-14.68L104.04-40.52L111.16-40.52L111.16-14.68L111.16-14.68Q111.16-10.08 113.26-7.56L113.26-7.56L113.26-7.56Q115.36-5.04 119.68-5.04L119.68-5.04L119.68-5.04Q122.84-5.04 125.58-6.54L125.58-6.54L125.58-6.54Q128.32-8.04 130.64-10.68L130.64-10.68L130.64-40.52" fill="#ec3e0e" stroke="none" stroke-width="none" transform="translate(-239.9399299621582,20.261587283794693)" style="fill: rgb(236, 62, 14);"></path></g><g class="path" style="opacity: 1; transform-origin: -79.4599px -0.358414px; animation: 2.5s linear -1.14231s infinite normal forwards running fade-4bda3cda-6e83-47f8-b0c9-393ce65727ea;"><path d="M155.32-38.56L155.80-32.40L155.80-32.40Q157.72-36.56 160.52-38.90L160.52-38.90L160.52-38.90Q163.32-41.24 167.36-41.24L167.36-41.24L167.36-41.24Q168.64-41.24 169.82-40.96L169.82-40.96L169.82-40.96Q171-40.68 171.92-40.08L171.92-40.08L171.40-34.76L171.40-34.76Q171.16-33.76 170.20-33.76L170.20-33.76L170.20-33.76Q169.64-33.76 168.56-34L168.56-34L168.56-34Q167.48-34.24 166.12-34.24L166.12-34.24L166.12-34.24Q164.20-34.24 162.70-33.68L162.70-33.68L162.70-33.68Q161.20-33.12 160.02-32.02L160.02-32.02L160.02-32.02Q158.84-30.92 157.90-29.30L157.90-29.30L157.90-29.30Q156.96-27.68 156.20-25.60L156.20-25.60L156.20 0L149.04 0L149.04-40.52L153.12-40.52L153.12-40.52Q154.28-40.52 154.72-40.08L154.72-40.08L154.72-40.08Q155.16-39.64 155.32-38.56L155.32-38.56" fill="#ec3e0e" stroke="none" stroke-width="none" transform="translate(-239.9399299621582,20.261587283794693)" style="fill: rgb(236, 62, 14);"></path></g><g class="path" style="opacity: 1; transform-origin: -52.6199px -6.25841px; animation: 2.5s linear -1.01538s infinite normal forwards running fade-4bda3cda-6e83-47f8-b0c9-393ce65727ea;"><path d="M190.60 0.64L190.60 0.64L190.60 0.64Q185.80 0.64 183.22-2.04L183.22-2.04L183.22-2.04Q180.64-4.72 180.64-9.76L180.64-9.76L180.64-34.56L175.76-34.56L175.76-34.56Q175.12-34.56 174.68-34.94L174.68-34.94L174.68-34.94Q174.24-35.32 174.24-36.12L174.24-36.12L174.24-38.96L180.88-39.80L182.52-52.32L182.52-52.32Q182.64-52.92 183.06-53.30L183.06-53.30L183.06-53.30Q183.48-53.68 184.16-53.68L184.16-53.68L187.76-53.68L187.76-39.72L199.48-39.72L199.48-34.56L187.76-34.56L187.76-10.24L187.76-10.24Q187.76-7.68 189-6.44L189-6.44L189-6.44Q190.24-5.20 192.20-5.20L192.20-5.20L192.20-5.20Q193.32-5.20 194.14-5.50L194.14-5.50L194.14-5.50Q194.96-5.80 195.56-6.16L195.56-6.16L195.56-6.16Q196.16-6.52 196.58-6.82L196.58-6.82L196.58-6.82Q197-7.12 197.32-7.12L197.32-7.12L197.32-7.12Q197.88-7.12 198.32-6.44L198.32-6.44L200.40-3.04L200.40-3.04Q198.56-1.32 195.96-0.34L195.96-0.34L195.96-0.34Q193.36 0.64 190.60 0.64" fill="#ec3e0e" stroke="none" stroke-width="none" transform="translate(-239.9399299621582,20.261587283794693)" style="fill: rgb(236, 62, 14);"></path></g><g class="path" style="opacity: 1; transform-origin: -23.8599px -3.71841px; animation: 2.5s linear -0.888462s infinite normal forwards running fade-4bda3cda-6e83-47f8-b0c9-393ce65727ea;"><path d="M206.20-20.96L206.20-27L225.96-27L225.96-20.96L206.20-20.96" fill="#ec3e0e" stroke="none" stroke-width="none" transform="translate(-239.9399299621582,20.261587283794693)" style="fill: rgb(236, 62, 14);"></path></g><g class="path" style="opacity: 1; transform-origin: 23.0001px -8.41841px; animation: 2.5s linear -0.761538s infinite normal forwards running fade-4bda3cda-6e83-47f8-b0c9-393ce65727ea;"><path d="M291.20-28.64L291.20-28.64L291.20-28.64Q291.20-22.20 289.16-16.82L289.16-16.82L289.16-16.82Q287.12-11.44 283.40-7.56L283.40-7.56L283.40-7.56Q279.68-3.68 274.46-1.54L274.46-1.54L274.46-1.54Q269.24 0.60 262.92 0.60L262.92 0.60L262.92 0.60Q256.60 0.60 251.40-1.54L251.40-1.54L251.40-1.54Q246.20-3.68 242.48-7.56L242.48-7.56L242.48-7.56Q238.76-11.44 236.72-16.82L236.72-16.82L236.72-16.82Q234.68-22.20 234.68-28.64L234.68-28.64L234.68-28.64Q234.68-35.08 236.72-40.46L236.72-40.46L236.72-40.46Q238.76-45.84 242.48-49.74L242.48-49.74L242.48-49.74Q246.20-53.64 251.40-55.80L251.40-55.80L251.40-55.80Q256.60-57.96 262.92-57.96L262.92-57.96L262.92-57.96Q269.24-57.96 274.46-55.80L274.46-55.80L274.46-55.80Q279.68-53.64 283.40-49.74L283.40-49.74L283.40-49.74Q287.12-45.84 289.16-40.46L289.16-40.46L289.16-40.46Q291.20-35.08 291.20-28.64zM283.24-28.64L283.24-28.64L283.24-28.64Q283.24-33.92 281.80-38.12L281.80-38.12L281.80-38.12Q280.36-42.32 277.72-45.22L277.72-45.22L277.72-45.22Q275.08-48.12 271.32-49.68L271.32-49.68L271.32-49.68Q267.56-51.24 262.92-51.24L262.92-51.24L262.92-51.24Q258.32-51.24 254.56-49.68L254.56-49.68L254.56-49.68Q250.80-48.12 248.14-45.22L248.14-45.22L248.14-45.22Q245.48-42.32 244.04-38.12L244.04-38.12L244.04-38.12Q242.60-33.92 242.60-28.64L242.60-28.64L242.60-28.64Q242.60-23.36 244.04-19.18L244.04-19.18L244.04-19.18Q245.48-15 248.14-12.10L248.14-12.10L248.14-12.10Q250.80-9.20 254.56-7.66L254.56-7.66L254.56-7.66Q258.32-6.12 262.92-6.12L262.92-6.12L262.92-6.12Q267.56-6.12 271.32-7.66L271.32-7.66L271.32-7.66Q275.08-9.20 277.72-12.10L277.72-12.10L277.72-12.10Q280.36-15 281.80-19.18L281.80-19.18L281.80-19.18Q283.24-23.36 283.24-28.64" fill="#ec3e0e" stroke="none" stroke-width="none" transform="translate(-239.9399299621582,20.261587283794693)" style="fill: rgb(236, 62, 14);"></path></g><g class="path" style="opacity: 1; transform-origin: 77.5401px -0.318413px; animation: 2.5s linear -0.634615s infinite normal forwards running fade-4bda3cda-6e83-47f8-b0c9-393ce65727ea;"><path d="M306.76-39.04L307.32-34.64L307.32-34.64Q308.64-36.12 310.12-37.32L310.12-37.32L310.12-37.32Q311.60-38.52 313.26-39.38L313.26-39.38L313.26-39.38Q314.92-40.24 316.78-40.70L316.78-40.70L316.78-40.70Q318.64-41.16 320.80-41.16L320.80-41.16L320.80-41.16Q324.12-41.16 326.66-40.06L326.66-40.06L326.66-40.06Q329.20-38.96 330.90-36.94L330.90-36.94L330.90-36.94Q332.60-34.92 333.48-32.08L333.48-32.08L333.48-32.08Q334.36-29.24 334.36-25.80L334.36-25.80L334.36 0L327.20 0L327.20-25.80L327.20-25.80Q327.20-30.40 325.10-32.94L325.10-32.94L325.10-32.94Q323.00-35.48 318.72-35.48L318.72-35.48L318.72-35.48Q315.56-35.48 312.82-33.96L312.82-33.96L312.82-33.96Q310.08-32.44 307.76-29.84L307.76-29.84L307.76 0L300.60 0L300.60-40.52L304.88-40.52L304.88-40.52Q306.40-40.52 306.76-39.04L306.76-39.04" fill="#ec3e0e" stroke="none" stroke-width="none" transform="translate(-239.9399299621582,20.261587283794693)" style="fill: rgb(236, 62, 14);"></path></g><g class="path" style="opacity: 1; transform-origin: 123.24px -8.39841px; animation: 2.5s linear -0.507692s infinite normal forwards running fade-4bda3cda-6e83-47f8-b0c9-393ce65727ea;"><path d="M354.64-6.52L379.44-6.52L379.44 0L346.92 0L346.92-57.32L354.64-57.32L354.64-6.52" fill="#ec3e0e" stroke="none" stroke-width="none" transform="translate(-239.9399299621582,20.261587283794693)" style="fill: rgb(236, 62, 14);"></path></g><g class="path" style="opacity: 1; transform-origin: 150.34px 0.00158691px; animation: 2.5s linear -0.380769s infinite normal forwards running fade-4bda3cda-6e83-47f8-b0c9-393ce65727ea;"><path d="M386.72-40.52L393.84-40.52L393.84 0L386.72 0L386.72-40.52" fill="#ec3e0e" stroke="none" stroke-width="none" transform="translate(-239.9399299621582,20.261587283794693)" style="fill: rgb(236, 62, 14);"></path></g><g class="path" style="opacity: 1; transform-origin: 150.34px -33.0184px; animation: 2.5s linear -0.253846s infinite normal forwards running fade-4bda3cda-6e83-47f8-b0c9-393ce65727ea;"><path d="M395.36-53.24L395.36-53.24L395.36-53.24Q395.36-52.20 394.94-51.30L394.94-51.30L394.94-51.30Q394.52-50.40 393.82-49.70L393.82-49.70L393.82-49.70Q393.12-49 392.18-48.60L392.18-48.60L392.18-48.60Q391.24-48.20 390.20-48.20L390.20-48.20L390.20-48.20Q389.16-48.20 388.26-48.60L388.26-48.60L388.26-48.60Q387.36-49 386.68-49.70L386.68-49.70L386.68-49.70Q386-50.40 385.60-51.30L385.60-51.30L385.60-51.30Q385.20-52.20 385.20-53.24L385.20-53.24L385.20-53.24Q385.20-54.28 385.60-55.22L385.60-55.22L385.60-55.22Q386-56.16 386.68-56.86L386.68-56.86L386.68-56.86Q387.36-57.56 388.26-57.96L388.26-57.96L388.26-57.96Q389.16-58.36 390.20-58.36L390.20-58.36L390.20-58.36Q391.24-58.36 392.18-57.96L392.18-57.96L392.18-57.96Q393.12-57.56 393.82-56.86L393.82-56.86L393.82-56.86Q394.52-56.16 394.94-55.22L394.94-55.22L394.94-55.22Q395.36-54.28 395.36-53.24" fill="#ec3e0e" stroke="none" stroke-width="none" transform="translate(-239.9399299621582,20.261587283794693)" style="fill: rgb(236, 62, 14);"></path></g><g class="path" style="opacity: 1; transform-origin: 182.46px -0.318413px; animation: 2.5s linear -0.126923s infinite normal forwards running fade-4bda3cda-6e83-47f8-b0c9-393ce65727ea;"><path d="M411.68-39.04L412.24-34.64L412.24-34.64Q413.56-36.12 415.04-37.32L415.04-37.32L415.04-37.32Q416.52-38.52 418.18-39.38L418.18-39.38L418.18-39.38Q419.84-40.24 421.70-40.70L421.70-40.70L421.70-40.70Q423.56-41.16 425.72-41.16L425.72-41.16L425.72-41.16Q429.04-41.16 431.58-40.06L431.58-40.06L431.58-40.06Q434.12-38.96 435.82-36.94L435.82-36.94L435.82-36.94Q437.52-34.92 438.40-32.08L438.40-32.08L438.40-32.08Q439.28-29.24 439.28-25.80L439.28-25.80L439.28 0L432.12 0L432.12-25.80L432.12-25.80Q432.12-30.40 430.02-32.94L430.02-32.94L430.02-32.94Q427.92-35.48 423.64-35.48L423.64-35.48L423.64-35.48Q420.48-35.48 417.74-33.96L417.74-33.96L417.74-33.96Q415-32.44 412.68-29.84L412.68-29.84L412.68 0L405.52 0L405.52-40.52L409.80-40.52L409.80-40.52Q411.32-40.52 411.68-39.04L411.68-39.04" fill="#ec3e0e" stroke="none" stroke-width="none" transform="translate(-239.9399299621582,20.261587283794693)" style="fill: rgb(236, 62, 14);"></path></g><g class="path" style="opacity: 1; transform-origin: 225.82px -0.0384121px; animation: 2.5s linear 0s infinite normal forwards running fade-4bda3cda-6e83-47f8-b0c9-393ce65727ea;"><path d="M455.12-24.68L477.28-24.68L477.28-24.68Q477.28-27.16 476.58-29.22L476.58-29.22L476.58-29.22Q475.88-31.28 474.54-32.78L474.54-32.78L474.54-32.78Q473.20-34.28 471.28-35.10L471.28-35.10L471.28-35.10Q469.36-35.92 466.92-35.92L466.92-35.92L466.92-35.92Q461.80-35.92 458.82-32.94L458.82-32.94L458.82-32.94Q455.84-29.96 455.12-24.68L455.12-24.68zM481.04-8.28L483.04-5.68L483.04-5.68Q481.72-4.08 479.88-2.90L479.88-2.90L479.88-2.90Q478.04-1.72 475.94-0.96L475.94-0.96L475.94-0.96Q473.84-0.20 471.60 0.18L471.60 0.18L471.60 0.18Q469.36 0.56 467.16 0.56L467.16 0.56L467.16 0.56Q462.96 0.56 459.42-0.86L459.42-0.86L459.42-0.86Q455.88-2.28 453.30-5.02L453.30-5.02L453.30-5.02Q450.72-7.76 449.28-11.80L449.28-11.80L449.28-11.80Q447.84-15.84 447.84-21.08L447.84-21.08L447.84-21.08Q447.84-25.32 449.14-29L449.14-29L449.14-29Q450.44-32.68 452.88-35.38L452.88-35.38L452.88-35.38Q455.32-38.08 458.84-39.62L458.84-39.62L458.84-39.62Q462.36-41.16 466.76-41.16L466.76-41.16L466.76-41.16Q470.40-41.16 473.50-39.94L473.50-39.94L473.50-39.94Q476.60-38.72 478.86-36.42L478.86-36.42L478.86-36.42Q481.12-34.12 482.40-30.74L482.40-30.74L482.40-30.74Q483.68-27.36 483.68-23.04L483.68-23.04L483.68-23.04Q483.68-21.36 483.32-20.80L483.32-20.80L483.32-20.80Q482.96-20.24 481.96-20.24L481.96-20.24L454.88-20.24L454.88-20.24Q455-16.40 455.94-13.56L455.94-13.56L455.94-13.56Q456.88-10.72 458.56-8.82L458.56-8.82L458.56-8.82Q460.24-6.92 462.56-5.98L462.56-5.98L462.56-5.98Q464.88-5.04 467.76-5.04L467.76-5.04L467.76-5.04Q470.44-5.04 472.38-5.66L472.38-5.66L472.38-5.66Q474.32-6.28 475.72-7L475.72-7L475.72-7Q477.12-7.72 478.06-8.34L478.06-8.34L478.06-8.34Q479-8.96 479.68-8.96L479.68-8.96L479.68-8.96Q480.56-8.96 481.04-8.28L481.04-8.28" fill="#ec3e0e" stroke="none" stroke-width="none" transform="translate(-239.9399299621582,20.261587283794693)" style="fill: rgb(236, 62, 14);"></path></g></g>
</g>
</g>
<style id="fade-4bda3cda-6e83-47f8-b0c9-393ce65727ea" data-anikit="">@keyframes fade-4bda3cda-6e83-47f8-b0c9-393ce65727ea
{
  0% {
    animation-timing-function: cubic-bezier(0.2057,0.573,0.3723,0.9184);
    opacity: 1;
  }
  100% {
    opacity: 0;
  }
}</style></svg>